<?xml version="1.0" encoding="utf-8"?>
<!-- Generator: Adobe Illustrator 15.1.0, SVG Export Plug-In . SVG Version: 6.00 Build 0)  -->
<!DOCTYPE svg PUBLIC "-//W3C//DTD SVG 1.1//EN" "http://www.w3.org/Graphics/SVG/1.1/DTD/svg11.dtd">
<svg version="1.1" id="Layer_1" xmlns="http://www.w3.org/2000/svg" xmlns:xlink="http://www.w3.org/1999/xlink" x="0px" y="0px"
	 width="142px" height="28px" viewBox="0 0 142 28" enable-background="new 0 0 142 28" xml:space="preserve">
<path fill="#C5292D" d="M-45.5-239.09"/>
<ellipse fill="#6D6D6C" cx="100.075" cy="2.85" rx="2.999" ry="2.85"/>
<polygon fill="#6D6D6C" points="0,5.462 2.682,5.462 2.682,23.369 0,23.369 0,27.578 10.669,27.578 10.669,23.369 7.673,23.369 
	7.673,5.462 10.53,5.462 10.53,1.288 0,1.288 "/>
<path fill="#6D6D6C" d="M20.608,23.369c-0.706,0-1.168-0.125-1.168-1.8V1.288h-7.844v4.104h2.958v16.391
	c0,3.917,1.836,5.9,5.454,5.9c0.836,0,1.558-0.068,1.588-0.071l0.653-0.066l0.052-4.279l-0.809,0.075
	C21.489,23.341,21.125,23.369,20.608,23.369z"/>
<path fill="#6D6D6C" d="M29.521,23.369c-0.705,0-1.167-0.125-1.167-1.8V1.288h-7.843v4.104h2.958v16.391
	c0,3.917,1.836,5.9,5.456,5.9c0.837,0,1.555-0.068,1.586-0.071l0.655-0.066l0.053-4.279l-0.812,0.075
	C30.402,23.341,30.042,23.369,29.521,23.369z"/>
<path fill="#6D6D6C" d="M49.775,23.508c-0.001-0.011-0.002-0.021-0.002-0.036V8.322h-7.739v4.103h2.856v4.825
	c0,3.044-1.054,6.191-4.213,6.191c-1.192,0-2.612-0.932-2.612-3.696V8.322h-8.709v4.103h3.824v8.02c0,5.013,2.214,7.556,6.583,7.556
	c2.026,0,4.063-1.294,5.269-2.588c0.208,1.386,1.257,2.166,2.951,2.166h3.322v-4.069h-1.49C49.8,23.509,49.786,23.509,49.775,23.508
	z"/>
<path fill="#6D6D6C" d="M124.135,23.508c-0.001-0.011-0.002-0.021-0.002-0.036V8.322h-7.738v4.103h2.853v4.825
	c0,3.044-1.052,6.191-4.213,6.191c-1.189,0-2.61-0.932-2.61-3.696V8.322h-8.433v4.103h3.546v8.02c0,5.013,2.219,7.556,6.584,7.556
	c2.025,0,4.064-1.294,5.271-2.588c0.209,1.386,1.257,2.166,2.949,2.166h3.322v-4.069h-1.488
	C124.16,23.509,124.146,23.509,124.135,23.508z"/>
<path fill="#6D6D6C" d="M61.261,15.957c-2.189-0.751-3.625-1.328-3.625-2.436c0-1.043,0.883-1.829,2.437-1.829
	c1.688,0,2.4,0.982,2.4,1.513v1.199h4.462V12.22c0-3.17-4.126-4.319-6.899-4.319c-3.643,0-7.32,1.75-7.32,5.654
	c0,3.847,3.636,5.207,6.051,6.104l0.505,0.181c2.265,0.797,3.446,1.267,3.446,2.366c0,1.071-1.203,1.971-2.857,1.971
	c-1.892,0-3.353-0.971-3.353-1.902v-1.477h-4.463v2.216c0,3.242,3.973,4.987,7.709,4.987c4.716,0,7.884-2.401,7.884-5.972
	C67.639,18.08,63.798,16.801,61.261,15.957z"/>
<path fill="#6D6D6C" d="M135.623,15.957c-2.188-0.751-3.627-1.328-3.627-2.436c0-1.043,0.886-1.829,2.439-1.829
	c1.685,0,2.398,0.982,2.398,1.513v1.199h4.463V12.22c0-3.17-4.126-4.319-6.898-4.319c-3.645,0-7.319,1.75-7.319,5.654
	c0,3.847,3.634,5.207,6.051,6.104l0.502,0.181c2.267,0.797,3.447,1.267,3.447,2.366c0,1.071-1.203,1.971-2.857,1.971
	c-1.89,0-3.354-0.971-3.354-1.902v-1.477h-4.463v2.216c0,3.242,3.975,4.987,7.711,4.987c4.717,0,7.884-2.401,7.884-5.972
	C142,18.08,138.16,16.801,135.623,15.957z"/>
<path fill="#6D6D6C" d="M78.633,23.342c-0.003,0.001-0.291,0.027-0.731,0.027c-2.036,0-3.069-1.128-3.069-3.345v-7.6h4.261V8.322
	h-4.261c0,0,0-3.28,0-4.928c-2.004,0.689-4.137,0.687-4.793,0.591c0,2.359-0.022,4.337-0.022,4.337h-2.232v4.103h2.162v7.915
	c0,6.658,5.267,7.378,7.533,7.378c0.782,0,1.315-0.069,1.336-0.076l0.63-0.092l-0.001-4.299L78.633,23.342z"/>
<path fill="#6D6D6C" d="M92.842,8.112c-1.936,0-3.698,0.918-4.939,2.473c-0.149-1.13-0.837-2.263-2.989-2.263h-4.747v4.103h2.951
	c0.016,0,0.029,0,0.041,0.001c0.001,0.012,0.002,0.023,0.002,0.039v11.013h-2.678v4.1h10.203v-4.1h-2.643v-3.982
	c0-2.443,0.988-6.579,4.693-6.579c0.459,0,0.808,0.082,0.809,0.082l0.914,0.228V8.292l-0.617-0.101
	C93.823,8.188,93.356,8.112,92.842,8.112z"/>
<polygon fill="#6D6D6C" points="102.917,8.322 95.487,8.322 95.487,12.425 98.032,12.425 98.032,23.479 95.249,23.479 
	95.249,27.578 105.738,27.578 105.738,23.479 102.917,23.479 "/>
<path fill="#6D6D6C" d="M67.4,1.604"/>
<rect x="-66" y="-40.715" fill="#7798CA" width="15" height="15"/>
<rect x="-50" y="-40.715" fill="#DE9643" width="15" height="15"/>
<rect x="-34" y="-40.715" fill="#B56797" width="15" height="15"/>
<rect x="-18" y="-40.715" fill="#F1CB31" width="15" height="15"/>
<rect x="-2" y="-40.715" fill="#79B593" width="15" height="15"/>
<polygon fill="#DE9643" points="-153.992,99.402 -151.974,97.355 -151.974,101.388 -154.599,101.388 -154.599,102.452 
	-151.974,102.452 -151.974,104.334 -154.599,104.334 -154.599,105.398 -151.974,105.398 -151.974,108.344 -150.925,108.344 
	-150.925,105.398 -148.301,105.398 -148.301,104.334 -150.925,104.334 -150.925,102.452 -148.301,102.452 -148.301,101.388 
	-150.925,101.388 -150.925,97.409 -148.96,99.402 -147.477,99.402 -151.477,95.344 -155.477,99.402 "/>
<g>
	<path fill="#79B593" d="M0,35.678c0-0.956,0.332-1.884,0.89-2.481c0.511-0.539,1.25-0.814,2.207-0.814
		c1.828,0,3.012,1.288,3.012,3.286c0,0.909-0.275,1.743-0.757,2.331c-0.512,0.615-1.316,0.946-2.283,0.946
		c-0.918,0-1.705-0.312-2.226-0.891C0.322,37.486,0,36.577,0,35.678z M3.059,38.235c1.222,0,2.083-1.052,2.083-2.548
		c0-1.534-0.843-2.595-2.055-2.595c-1.288,0-2.122,1.004-2.122,2.566C0.966,37.174,1.828,38.235,3.059,38.235z"/>
	<path fill="#79B593" d="M7.315,36c0-0.341-0.019-0.947-0.057-1.81h0.795l0.047,0.824c0.266-0.577,0.729-0.89,1.316-0.89
		c0.17,0,0.265,0.01,0.464,0.065v0.787c-0.171-0.066-0.265-0.086-0.408-0.086c-0.559,0-1.003,0.36-1.193,0.966
		c-0.085,0.257-0.104,0.455-0.104,1.146v1.818H7.315V36z"/>
	<path fill="#79B593" d="M10.584,32.136h0.938v0.947h-0.938V32.136z M10.641,34.19h0.862v4.632h-0.862V34.19z"/>
	<path fill="#79B593" d="M14.63,40.092c0.634,0,1.098-0.247,1.307-0.701c0.114-0.237,0.151-0.483,0.161-0.947
		c0-0.218,0-0.236,0.01-0.389c-0.341,0.502-0.881,0.776-1.544,0.776c-1.222,0-2.036-0.928-2.036-2.301
		c0-1.439,0.824-2.415,2.017-2.415c0.72,0,1.307,0.331,1.563,0.871c0.009-0.057,0.009-0.095,0.009-0.104
		c-0.009-0.086-0.009-0.18-0.009-0.275v-0.426h0.805v3.835c0,0.9-0.028,1.232-0.152,1.61c-0.246,0.768-1.003,1.193-2.112,1.193
		c-0.616,0-1.127-0.095-1.752-0.321l0.085-0.834C13.578,39.959,14.08,40.092,14.63,40.092z M14.715,38.103
		c0.786,0,1.354-0.672,1.354-1.619c0-0.909-0.578-1.639-1.307-1.639c-0.786,0-1.326,0.682-1.326,1.677
		C13.437,37.448,13.966,38.103,14.715,38.103z"/>
	<path fill="#79B593" d="M18.118,32.136h0.938v0.947h-0.938V32.136z M18.175,34.19h0.862v4.632h-0.862V34.19z"/>
	<path fill="#79B593" d="M20.401,36.53c0-0.984-0.029-1.762-0.057-2.34h0.805l0.038,0.729c0.36-0.53,0.899-0.814,1.591-0.814
		c0.805,0,1.383,0.407,1.601,1.127c0.095,0.294,0.124,0.673,0.124,1.431v2.159h-0.862v-2.084c0-0.72-0.01-0.909-0.076-1.146
		c-0.133-0.482-0.483-0.758-0.976-0.758c-0.568,0-1.042,0.37-1.221,0.957c-0.086,0.293-0.104,0.492-0.104,1.335v1.695h-0.862V36.53z
		"/>
	<path fill="#79B593" d="M27.867,35.972c0.18,0,0.351,0.01,0.644,0.028c-0.009-0.795-0.379-1.165-1.155-1.165
		c-0.502,0-0.891,0.133-1.364,0.455l-0.047-0.758c0.511-0.294,0.985-0.427,1.553-0.427c0.805,0,1.402,0.312,1.658,0.853
		c0.142,0.294,0.189,0.635,0.189,1.326v0.966c0,0.72,0.019,1.212,0.047,1.572h-0.786c-0.01-0.18-0.01-0.266-0.01-0.369
		c0-0.104,0-0.143,0.01-0.427c-0.351,0.588-0.843,0.862-1.553,0.862c-0.976,0-1.61-0.549-1.61-1.393
		C25.443,36.521,26.314,35.972,27.867,35.972z M27.242,38.207c0.511,0,0.947-0.256,1.146-0.673c0.104-0.218,0.142-0.436,0.142-0.899
		c-0.161-0.02-0.284-0.029-0.464-0.029c-1.136,0-1.714,0.294-1.714,0.881C26.352,37.913,26.721,38.207,27.242,38.207z"/>
	<path fill="#79B593" d="M30.702,32.003h0.861v6.819h-0.861V32.003z"/>
	<path fill="#79B593" d="M33.79,40.754h-0.862v-4.536c0-0.578-0.019-1.373-0.057-2.027h0.814l0.057,0.815
		c0.35-0.588,0.909-0.9,1.61-0.9c1.193,0,1.989,0.938,1.989,2.339c0,1.469-0.805,2.444-2.008,2.444
		c-0.757,0-1.259-0.294-1.591-0.909l0.009,0.151c0.019,0.265,0.038,0.389,0.038,0.738V40.754z M35.145,38.159
		c0.739,0,1.288-0.711,1.288-1.657c0-0.985-0.511-1.667-1.25-1.667c-0.805,0-1.392,0.7-1.392,1.676
		C33.79,37.439,34.377,38.159,35.145,38.159z"/>
	<path fill="#79B593" d="M38.433,36c0-0.341-0.019-0.947-0.057-1.81h0.795l0.047,0.824c0.266-0.577,0.729-0.89,1.316-0.89
		c0.17,0,0.266,0.01,0.464,0.065v0.787c-0.17-0.066-0.265-0.086-0.408-0.086c-0.559,0-1.003,0.36-1.193,0.966
		c-0.085,0.257-0.104,0.455-0.104,1.146v1.818h-0.862V36z"/>
	<path fill="#79B593" d="M43.739,34.068c1.411,0,2.387,1.013,2.387,2.481c0,1.392-1.004,2.396-2.387,2.396
		c-1.354,0-2.358-1.032-2.358-2.424C41.38,35.1,42.375,34.068,43.739,34.068z M43.758,38.263c0.843,0,1.458-0.729,1.458-1.713
		c0-1.062-0.606-1.8-1.458-1.8c-0.853,0-1.468,0.738-1.468,1.761C42.29,37.544,42.896,38.263,43.758,38.263z"/>
	<path fill="#79B593" d="M48.894,34.105c0.653,0,1.155,0.266,1.534,0.806l-0.019-0.407c0-0.086-0.009-0.161-0.009-0.228v-2.273
		h0.862v4.66c0,0.701,0.019,1.325,0.066,2.159h-0.834v-0.776c-0.407,0.587-0.89,0.843-1.6,0.843c-1.241,0-2.027-0.919-2.027-2.367
		C46.867,35.091,47.691,34.105,48.894,34.105z M49.073,38.159c0.777,0,1.345-0.701,1.345-1.648c0-0.937-0.568-1.676-1.307-1.676
		c-0.786,0-1.335,0.691-1.335,1.687C47.776,37.486,48.306,38.159,49.073,38.159z"/>
	<path fill="#79B593" d="M52.59,36.644V34.19h0.862v2.15c0,0.691,0.028,0.994,0.123,1.24c0.151,0.407,0.473,0.626,0.899,0.626
		c0.474,0,0.881-0.274,1.108-0.729c0.161-0.332,0.189-0.493,0.189-1.25V34.19h0.862v2.917c0,0.521,0.009,0.881,0.057,1.715h-0.786
		l-0.047-0.72c-0.369,0.521-0.9,0.786-1.553,0.786c-0.682,0-1.231-0.304-1.487-0.834C52.666,37.742,52.59,37.278,52.59,36.644z"/>
	<path fill="#79B593" d="M58.02,32.003h0.862v3.269c0,0.757-0.028,0.757-0.028,0.852c0.104-0.133,0.218-0.256,0.397-0.427
		l1.506-1.506h1.155l-2.16,2.046l2.453,2.586h-1.212l-1.572-1.705c-0.18-0.199-0.322-0.426-0.568-0.682
		c0.009,0.075,0.028,0.303,0.028,0.701v1.686H58.02V32.003z"/>
	<path fill="#79B593" d="M63.307,36.957v-2.094h-1.07V34.19h1.07v-1.041l0.862-0.294v1.335h1.222v0.673h-1.222v1.838
		c0,0.482,0.01,0.729,0.047,0.909c0.066,0.341,0.332,0.539,0.71,0.539c0.18,0,0.332-0.037,0.559-0.142v0.738
		c-0.312,0.096-0.549,0.133-0.795,0.133c-0.559,0-0.995-0.218-1.203-0.605C63.354,38.017,63.307,37.686,63.307,36.957z"/>
	<path fill="#79B593" d="M66.339,32.136h0.938v0.947h-0.938V32.136z M66.396,34.19h0.862v4.632h-0.862V34.19z"/>
	<path fill="#79B593" d="M70.64,34.068c1.411,0,2.387,1.013,2.387,2.481c0,1.392-1.004,2.396-2.387,2.396
		c-1.354,0-2.358-1.032-2.358-2.424C68.282,35.1,69.276,34.068,70.64,34.068z M70.659,38.263c0.843,0,1.459-0.729,1.459-1.713
		c0-1.062-0.606-1.8-1.459-1.8c-0.852,0-1.468,0.738-1.468,1.761C69.191,37.544,69.797,38.263,70.659,38.263z"/>
	<path fill="#79B593" d="M74.081,36.53c0-0.984-0.029-1.762-0.057-2.34h0.805l0.038,0.729c0.36-0.53,0.9-0.814,1.591-0.814
		c0.805,0,1.383,0.407,1.601,1.127c0.094,0.294,0.124,0.673,0.124,1.431v2.159H77.32v-2.084c0-0.72-0.01-0.909-0.076-1.146
		c-0.133-0.482-0.484-0.758-0.977-0.758c-0.567,0-1.041,0.37-1.221,0.957c-0.085,0.293-0.104,0.492-0.104,1.335v1.695h-0.861V36.53z
		"/>
	<path fill="#79B593" d="M83.877,34.068c1.411,0,2.387,1.013,2.387,2.481c0,1.392-1.004,2.396-2.387,2.396
		c-1.354,0-2.358-1.032-2.358-2.424C81.519,35.1,82.514,34.068,83.877,34.068z M83.896,38.263c0.844,0,1.459-0.729,1.459-1.713
		c0-1.062-0.606-1.8-1.459-1.8c-0.852,0-1.468,0.738-1.468,1.761C82.428,37.544,83.035,38.263,83.896,38.263z"/>
	<path fill="#79B593" d="M87.574,34.892c0.426-0.474,1.089-0.757,1.752-0.757c0.359,0,0.739,0.065,1.05,0.188l-0.056,0.758
		c-0.255-0.151-0.521-0.218-0.843-0.218c-0.919,0-1.562,0.672-1.562,1.61c0,0.994,0.634,1.676,1.544,1.676
		c0.359,0,0.615-0.075,0.965-0.294l0.066,0.787c-0.332,0.16-0.691,0.236-1.137,0.236c-1.411,0-2.349-0.946-2.349-2.368
		C87.005,35.867,87.195,35.318,87.574,34.892z"/>
	<path fill="#79B593" d="M91.279,32.003h0.862v2.207c0,0.322-0.009,0.577-0.028,0.729c0.321-0.55,0.842-0.834,1.543-0.834
		c0.757,0,1.316,0.36,1.562,0.994c0.123,0.322,0.17,0.683,0.17,1.289v2.434h-0.861v-2.008c0-0.7-0.02-0.976-0.086-1.213
		c-0.133-0.502-0.473-0.767-0.965-0.767c-0.568,0-1.051,0.37-1.23,0.947c-0.085,0.266-0.104,0.512-0.104,1.202v1.838h-0.862V32.003z
		"/>
	<path fill="#79B593" d="M98.955,32.136h0.938v0.947h-0.938V32.136z M99.012,34.19h0.861v4.632h-0.861V34.19z"/>
	<path fill="#79B593" d="M101.182,32.003h0.861v6.819h-0.861V32.003z"/>
	<path fill="#79B593" d="M103.352,32.003h0.861v6.819h-0.861V32.003z"/>
	<path fill="#79B593" d="M105.465,36.644V34.19h0.861v2.15c0,0.691,0.029,0.994,0.123,1.24c0.152,0.407,0.475,0.626,0.9,0.626
		c0.473,0,0.881-0.274,1.107-0.729c0.162-0.332,0.189-0.493,0.189-1.25V34.19h0.861v2.917c0,0.521,0.01,0.881,0.059,1.715h-0.787
		l-0.049-0.72c-0.367,0.521-0.898,0.786-1.553,0.786c-0.682,0-1.23-0.304-1.486-0.834C105.541,37.742,105.465,37.278,105.465,36.644
		z"/>
	<path fill="#79B593" d="M110.619,37.875c0.436,0.208,0.758,0.304,1.09,0.304c0.52,0,0.891-0.257,0.891-0.606
		c0-0.171-0.086-0.332-0.229-0.436c-0.104-0.076-0.104-0.076-0.389-0.219l-0.359-0.18c-0.436-0.217-0.549-0.294-0.719-0.454
		c-0.219-0.218-0.342-0.502-0.342-0.833c0-0.814,0.645-1.346,1.609-1.346c0.361,0,0.682,0.058,1.08,0.19l-0.066,0.729
		c-0.322-0.161-0.605-0.237-0.938-0.237c-0.473,0-0.775,0.228-0.775,0.578c0,0.256,0.197,0.455,0.643,0.672l0.352,0.171
		c0.758,0.369,1.041,0.71,1.041,1.288c0,0.844-0.672,1.411-1.686,1.411c-0.445,0-0.797-0.076-1.203-0.265V37.875z"/>
	<path fill="#79B593" d="M114.949,36.957v-2.094h-1.07V34.19h1.07v-1.041l0.861-0.294v1.335h1.223v0.673h-1.223v1.838
		c0,0.482,0.01,0.729,0.047,0.909c0.066,0.341,0.332,0.539,0.711,0.539c0.18,0,0.332-0.037,0.559-0.142v0.738
		c-0.312,0.096-0.549,0.133-0.795,0.133c-0.559,0-0.994-0.218-1.203-0.605C114.996,38.017,114.949,37.686,114.949,36.957z"/>
	<path fill="#79B593" d="M118.096,36c0-0.341-0.02-0.947-0.057-1.81h0.795l0.047,0.824c0.266-0.577,0.73-0.89,1.316-0.89
		c0.17,0,0.266,0.01,0.465,0.065v0.787c-0.172-0.066-0.266-0.086-0.408-0.086c-0.559,0-1.002,0.36-1.193,0.966
		c-0.084,0.257-0.104,0.455-0.104,1.146v1.818h-0.861V36z"/>
	<path fill="#79B593" d="M123.477,35.972c0.18,0,0.35,0.01,0.643,0.028c-0.008-0.795-0.377-1.165-1.154-1.165
		c-0.502,0-0.891,0.133-1.363,0.455l-0.047-0.758c0.51-0.294,0.984-0.427,1.553-0.427c0.805,0,1.4,0.312,1.658,0.853
		c0.141,0.294,0.188,0.635,0.188,1.326v0.966c0,0.72,0.02,1.212,0.047,1.572h-0.785c-0.01-0.18-0.01-0.266-0.01-0.369
		c0-0.104,0-0.143,0.01-0.427c-0.352,0.588-0.844,0.862-1.553,0.862c-0.977,0-1.611-0.549-1.611-1.393
		C121.051,36.521,121.924,35.972,123.477,35.972z M122.852,38.207c0.512,0,0.945-0.256,1.145-0.673
		c0.105-0.218,0.143-0.436,0.143-0.899c-0.16-0.02-0.283-0.029-0.463-0.029c-1.137,0-1.715,0.294-1.715,0.881
		C121.961,37.913,122.33,38.207,122.852,38.207z"/>
	<path fill="#79B593" d="M126.623,36.957v-2.094h-1.07V34.19h1.07v-1.041l0.861-0.294v1.335h1.223v0.673h-1.223v1.838
		c0,0.482,0.01,0.729,0.049,0.909c0.066,0.341,0.33,0.539,0.709,0.539c0.182,0,0.332-0.037,0.559-0.142v0.738
		c-0.311,0.096-0.549,0.133-0.795,0.133c-0.559,0-0.994-0.218-1.203-0.605C126.672,38.017,126.623,37.686,126.623,36.957z"/>
	<path fill="#79B593" d="M129.656,32.136h0.938v0.947h-0.938V32.136z M129.713,34.19h0.861v4.632h-0.861V34.19z"/>
	<path fill="#79B593" d="M133.957,34.068c1.41,0,2.385,1.013,2.385,2.481c0,1.392-1.004,2.396-2.385,2.396
		c-1.354,0-2.359-1.032-2.359-2.424C131.598,35.1,132.592,34.068,133.957,34.068z M133.975,38.263c0.844,0,1.459-0.729,1.459-1.713
		c0-1.062-0.605-1.8-1.459-1.8c-0.852,0-1.467,0.738-1.467,1.761C132.508,37.544,133.113,38.263,133.975,38.263z"/>
	<path fill="#79B593" d="M137.398,36.53c0-0.984-0.029-1.762-0.059-2.34h0.807l0.037,0.729c0.359-0.53,0.9-0.814,1.592-0.814
		c0.805,0,1.383,0.407,1.6,1.127c0.096,0.294,0.123,0.673,0.123,1.431v2.159h-0.861v-2.084c0-0.72-0.01-0.909-0.076-1.146
		c-0.133-0.482-0.482-0.758-0.975-0.758c-0.568,0-1.043,0.37-1.221,0.957c-0.088,0.293-0.105,0.492-0.105,1.335v1.695h-0.861V36.53z
		"/>
</g>
</svg>
